<?xml version="1.0" encoding="utf-8"?>
<!-- Generator: Adobe Illustrator 21.0.0, SVG Export Plug-In . SVG Version: 6.00 Build 0)  -->
<svg version="1.1" id="Layer_1" xmlns="http://www.w3.org/2000/svg" xmlns:xlink="http://www.w3.org/1999/xlink" x="0px" y="0px"
	 viewBox="0 0 356.3 356.3" style="enable-background:new 0 0 356.3 356.3;" xml:space="preserve">
<style type="text/css">
	.st0{fill:none;stroke:#FFFFFF;stroke-width:10;stroke-miterlimit:10;}
</style>
<path class="st0" d="M350.7,163.9l-31.4-11.2c-3.7-20.6-11.8-39.7-23.3-56.3l14.3-30.2c-6.2-7.3-12.9-14-20.2-20.2l-30.2,14.3
	c-16.6-11.5-35.6-19.6-56.3-23.3L192.5,5.6C187.7,5.2,183,5,178.2,5s-9.6,0.2-14.3,0.6l-11.2,31.4c-20.6,3.7-39.7,11.8-56.3,23.3
	L66.3,46.1C59,52.2,52.2,59,46.1,66.3l14.3,30.2c-11.5,16.6-19.6,35.6-23.3,56.3L5.6,163.9c-0.4,4.7-0.6,9.5-0.6,14.3
	s0.2,9.6,0.6,14.3l31.4,11.2c3.7,20.6,11.8,39.7,23.3,56.3l-14.3,30.2c6.2,7.3,12.9,14,20.2,20.2l30.2-14.3
	c16.6,11.5,35.6,19.6,56.3,23.3l11.2,31.4c4.7,0.4,9.5,0.6,14.3,0.6s9.6-0.2,14.3-0.6l11.2-31.4c20.6-3.7,39.7-11.8,56.3-23.3
	l30.2,14.3c7.3-6.2,14-12.9,20.2-20.2l-14.3-30.2c11.5-16.6,19.6-35.6,23.3-56.3l31.4-11.2c0.4-4.7,0.6-9.5,0.6-14.3
	S351.1,168.6,350.7,163.9z M178.2,224.5c-25.6,0-46.3-20.7-46.3-46.3s20.7-46.3,46.3-46.3s46.3,20.7,46.3,46.3
	S203.8,224.5,178.2,224.5z"/>
</svg>
