<svg version="1" xmlns="http://www.w3.org/2000/svg" width="933.333" height="933.333" viewBox="0 0 700.000000 700.000000"><path d="M325.8.8l-4.6.3-5 14.2c-2.8 7.8-6.7 18.7-8.7 24.2-2 5.5-3.7 10.4-3.8 11-.2.5-.5 1.4-.8 2-.4.5-1.4 3.4-2.3 6.2-1 2.9-2.1 5.5-2.4 5.7-.6.3-14.4 3.7-25.5 6.1-1 .2-7.9 2.5-15.3 5-22.5 7.6-44.7 18.2-62.9 30-5 3.2-9.4 5.8-10 5.8-.5 0-5.9-2.4-12-5.3-6-2.9-14.1-6.7-18-8.5-3.8-1.8-12.3-5.8-18.8-8.9L123.8 83l-3.1 2.7c-6.3 5.5-35.5 35-36.5 36.9-.7 1.5-.2 3.6 2.7 9.4 2 4.1 7.6 16 12.6 26.5 4.9 10.4 9.7 20.6 10.6 22.5 1.7 3.3 1.7 3.6 0 6.5-1 1.6-4.3 7-7.3 12-17.4 28.7-29.7 59.6-36.3 91.2l-1.7 8.1-10.7 3.7C41.1 307 27 312 25 312.7c-.8.3-6.4 2.3-12.4 4.4-6 2.1-11.1 4.1-11.5 4.4-.3.4-.6 13.2-.6 28.6 0 23.6.2 28.1 1.5 28.9.8.5 4.8 2.1 9 3.5 13.3 4.7 41.5 14.7 43 15.3.8.3 3.5 1.3 6 2.2 4.2 1.5 4.6 2 5.7 6.5.7 2.7 1.4 6 1.7 7.4 2.4 14.5 15.9 52.6 23.6 66.6.9 1.6 2.9 5.5 4.5 8.5s5.8 10 9.4 15.5c3.5 5.5 6.4 10.4 6.4 11 0 1-2 5.3-12.1 26.5-2.7 5.8-7.5 15.8-10.6 22.4L83 576.3l3.7 4.6c4.9 6 26.5 27.5 32.4 32.4l4.6 3.7 5.4-2.4c9.5-4.2 49.4-23.1 52.1-24.6 2.8-1.6 4.2-1.2 10.4 2.9 9.7 6.3 22.3 13.5 31.9 18 5 2.3 9.8 4.6 10.8 5.2 8.1 4.5 41.1 14.8 57.6 18 7.4 1.4 5.9-1.1 15.1 24.9 14.3 40.7 14 39.8 16.8 40.3 3.2.6 47.7.6 51.9 0 2.9-.5 3.4-1.1 5.8-7.7 1.5-3.9 3.3-8.7 4-10.6.7-1.9 4.7-12.9 8.7-24.4 4-11.4 7.8-21 8.3-21.1.6-.2 7.1-1.7 14.5-3.4 15.2-3.6 28.5-7.7 41-12.8 8.9-3.7 33.1-15.2 34-16.2.3-.3 2.5-1.7 5-3 2.5-1.4 7.4-4.4 11-6.8 3.6-2.4 7-4.3 7.6-4.3.7 0 7.4 3 15.1 6.6 7.6 3.7 20.9 10 29.7 14l15.8 7.4 3.7-2.7c4.7-3.6 30.9-29.8 34.5-34.5l2.8-3.7-14.1-29.7c-7.8-16.4-14.1-30.1-14.1-30.7 0-.5 3-5.7 6.7-11.5 17.4-27.6 31.2-61.6 37.6-92.1l2.2-10.5 5-1.7c2.8-1 9.5-3.4 15-5.4 10.8-3.9 26-9.3 36.5-12.9 6.2-2.2 6.5-2.4 7.2-6.2.8-4.7.5-53-.3-53.8-.6-.6-16.3-6.4-24.4-9.1-2.2-.7-9.2-3.2-15.5-5.5-6.3-2.3-14.3-5.1-17.7-6.2l-6.1-2.1-1.2-6.1c-2-10.9-7-28.7-11.6-41.6-5.7-15.6-19.3-43.5-27.5-56-3.4-5.2-6.2-10-6.2-10.5 0-.6 2.3-5.7 5-11.5 26.1-54.6 23.7-48.9 21.5-51.4-1-1.1-3.2-3.6-4.7-5.4-5.7-6.5-24.8-25.3-32.1-31.5-2.1-1.7-2.4-1.7-11.5 2.6-18.2 8.6-27.5 13-39.5 18.7l-12.1 5.7-9.9-6.4c-9.8-6.4-39.8-21.8-48.4-24.8-16.8-6.1-31.8-10.6-42.8-13.1l-12.9-2.8-1.7-5.1c-1-2.7-4.2-11.8-7.1-20-2.9-8.3-6.9-19.7-9-25.5-2-5.8-4-11.2-4.5-12-.7-1.1-5.6-1.4-24.7-1.5-13.1 0-25.9.1-28.5.3zm36.8 256.7c46.2 5.7 81.7 47 80.8 94-.7 42.3-28.8 78.2-69.4 89-8 2.1-12.1 2.6-22.3 2.9-35.4 1-69.2-19.4-85.2-51.4-3.1-6.3-6-14.1-7.1-19.1-.2-1.3-.9-4.7-1.5-7.4-1.4-6.7-1.3-24.6.1-31.5.6-3 1.3-6.5 1.6-7.8.3-1.3 1.6-5.3 3-9 15.3-40.7 56.3-65.2 100-59.7z"/></svg>